<?xml version="1.0" standalone="no"?>
<!DOCTYPE svg PUBLIC "-//W3C//DTD SVG 20010904//EN"
 "http://www.w3.org/TR/2001/REC-SVG-20010904/DTD/svg10.dtd">
<svg version="1.0" xmlns="http://www.w3.org/2000/svg"
 width="500.000000pt" height="500.000000pt" viewBox="0 0 500.000000 500.000000"
 preserveAspectRatio="xMidYMid meet">
<metadata>
Created by potrace 1.11, written by Peter Selinger 2001-2013
</metadata>
<g transform="translate(0.000000,500.000000) scale(0.100000,-0.100000)"
fill="#000000" stroke="none">
<path d="M4360 3699 c-83 -50 -228 -185 -575 -533 -204 -204 -440 -450 -526
-546 -86 -96 -171 -191 -188 -210 l-32 -35 17 35 c28 57 234 433 429 780 100
179 197 354 215 389 l32 65 -22 18 c-31 25 -97 41 -139 33 -20 -4 -58 -6 -85
-6 -36 1 -61 -6 -95 -25 -68 -40 -294 -273 -474 -489 -455 -547 -1057 -1404
-1057 -1505 0 -12 5 -30 11 -41 16 -30 106 -69 161 -69 l46 0 58 108 c165 311
432 707 743 1106 122 157 357 436 367 436 3 0 -7 -21 -22 -47 -166 -283 -593
-1127 -601 -1189 -5 -38 -3 -43 36 -76 49 -41 79 -50 130 -36 44 12 275 243
910 906 233 243 425 442 428 442 3 0 -11 -21 -30 -47 -366 -507 -712 -1056
-732 -1167 -18 -91 30 -165 123 -192 51 -15 60 -15 108 0 132 42 458 304 507
409 15 31 16 46 7 109 -20 138 -14 138 -149 1 -65 -66 -147 -141 -183 -166
-62 -45 -116 -72 -125 -63 -26 26 417 692 862 1296 205 277 191 254 166 279
-14 14 -34 21 -58 21 -21 1 -65 7 -98 15 -83 20 -124 19 -165 -6z"/>
<path d="M1215 3644 c-256 -40 -446 -121 -585 -251 -75 -70 -110 -131 -110
-192 0 -53 12 -77 50 -96 67 -34 168 -4 265 81 l40 34 -42 -6 c-54 -8 -56 6
-7 51 70 64 264 147 419 180 106 23 323 23 425 1 169 -36 318 -143 376 -269
39 -85 40 -202 2 -294 -162 -390 -770 -799 -1234 -830 -104 -7 -149 0 -140 23
13 35 566 893 753 1168 52 76 93 145 91 154 -2 9 -18 20 -37 25 -41 10 -175
-6 -197 -24 -42 -35 -581 -824 -720 -1054 -109 -181 -144 -264 -144 -342 0
-52 4 -66 26 -93 48 -56 74 -64 239 -68 119 -3 175 0 271 17 237 40 543 162
744 296 262 175 432 356 536 570 159 326 113 596 -131 770 -162 116 -360 166
-650 164 -82 -1 -190 -7 -240 -15z"/>
<path d="M4433 2043 c-31 -6 -108 -77 -127 -117 -25 -52 -21 -112 9 -141 75
-76 240 25 253 154 6 61 -9 88 -56 101 -38 10 -41 10 -79 3z"/>
</g>
</svg>
